HIERARCHY
ROOT Hips
{
	OFFSET -0.001795 -0.223333 0.028219
	CHANNELS 6 Xposition Yposition Zposition Zrotation Yrotation Xrotation 
	JOINT LeftUpLeg
	{
		OFFSET 0.069520 -0.091406 -0.006815
		CHANNELS 3 Zrotation Yrotation Xrotation
		JOINT LeftLeg
		{
			OFFSET 0.034277 -0.375199 -0.004496
			CHANNELS 3 Zrotation Yrotation Xrotation
			JOINT LeftFoot
			{
				OFFSET -0.013596 -0.397961 -0.043693
				CHANNELS 3 Zrotation Yrotation Xrotation
				JOINT LeftToe
				{
					OFFSET 0.026358 -0.055791 0.119288
					CHANNELS 3 Zrotation Yrotation Xrotation
					End Site
					{
						OFFSET 0.000000 0.000000 0.000000
					}
				}
			}
		}
	}
	JOINT RightUpLeg
	{
		OFFSET -0.067670 -0.090522 -0.004320
		CHANNELS 3 Zrotation Yrotation Xrotation
		JOINT RightLeg
		{
			OFFSET -0.038290 -0.382569 -0.008850
			CHANNELS 3 Zrotation Yrotation Xrotation
			JOINT RightFoot
			{
				OFFSET 0.015774 -0.398415 -0.042312
				CHANNELS 3 Zrotation Yrotation Xrotation
				JOINT RightToe
				{
					OFFSET -0.025372 -0.048144 0.123348
					CHANNELS 3 Zrotation Yrotation Xrotation
					End Site
					{
						OFFSET 0.000000 0.000000 0.000000
					}
				}
			}
		}
	}
	JOINT Spine
	{
		OFFSET -0.002533 0.108963 -0.026696
		CHANNELS 3 Zrotation Yrotation Xrotation
		JOINT Spine1
		{
			OFFSET 0.005487 0.135180 0.001092
			CHANNELS 3 Zrotation Yrotation Xrotation
			JOINT Spine2
			{
				OFFSET 0.001457 0.052922 0.025425
				CHANNELS 3 Zrotation Yrotation Xrotation
				JOINT Neck
				{
					OFFSET -0.002778 0.213870 -0.042857
					CHANNELS 3 Zrotation Yrotation Xrotation
					JOINT Head
					{
						OFFSET 0.005152 0.064970 0.051349
						CHANNELS 3 Zrotation Yrotation Xrotation
						End Site
						{
							OFFSET 0.000000 0.000000 0.000000
						}
					}
				}
				JOINT LeftShoulder
				{
					OFFSET 0.078845 0.121749 -0.034090
					CHANNELS 3 Zrotation Yrotation Xrotation
					JOINT LeftArm
					{
						OFFSET 0.090977 0.030469 -0.008868
						CHANNELS 3 Zrotation Yrotation Xrotation
						JOINT LeftForeArm
						{
							OFFSET 0.259612 -0.012772 -0.027456
							CHANNELS 3 Zrotation Yrotation Xrotation
							JOINT LeftHand
							{
								OFFSET 0.249234 0.008986 -0.001171
								CHANNELS 3 Zrotation Yrotation Xrotation
								End Site
								{
									OFFSET 0.000000 0.000000 0.000000
								}
							}
						}
					}
				}
				JOINT RightShoulder
				{
					OFFSET -0.081759 0.118833 -0.038615
					CHANNELS 3 Zrotation Yrotation Xrotation
					JOINT RightArm
					{
						OFFSET -0.096012 0.032551 -0.009143
						CHANNELS 3 Zrotation Yrotation Xrotation
						JOINT RightForeArm
						{
							OFFSET -0.253742 -0.013329 -0.021401
							CHANNELS 3 Zrotation Yrotation Xrotation
							JOINT RightHand
							{
								OFFSET -0.255298 0.007772 -0.005559
								CHANNELS 3 Zrotation Yrotation Xrotation
								End Site
								{
									OFFSET 0.000000 0.000000 0.000000
								}
							}
						}
					}
				}
			}
		}
	}
}
MOTION
Frames: 15
Frame Time: 0.050000
0.000000 0.955152 0.000000 -1.481727 0.758640 -2.035239 4.698224 0.374031 8.630252 -3.493591 0.394963 -5.349866 2.915231 8.989622 9.961220 0.000000 0.000000 0.000000 -1.090670 -0.415420 4.711587 2.660696 -0.290704 -0.058540 -1.856374 -7.905577 9.931944 0.000000 0.000000 0.000000 -1.278681 -0.160820 5.396783 4.036749 -0.388569 -23.778944 -1.492075 -1.352630 30.200507 1.463072 0.482425 -25.429269 0.000000 0.000000 0.000000 -28.668846 2.545649 -3.034082 -50.094934 -3.859156 -7.085566 -13.326367 -25.174303 4.420329 0.000000 0.000000 0.000000 20.117443 1.862900 -0.202538 56.222145 2.152736 -7.274111 10.663575 26.106110 3.530858 0.000000 0.000000 0.000000 
-0.000270 0.955108 0.001341 -1.822409 0.601571 -1.627004 5.112477 0.334207 8.581958 -3.397161 0.392108 -6.031957 2.868710 8.818975 9.633234 0.000000 0.000000 0.000000 -1.104509 -0.346596 3.992768 2.980707 -0.319123 0.313689 -1.747364 -7.536484 9.327965 0.000000 0.000000 0.000000 -0.954634 -0.155748 4.802126 3.581960 -0.275040 -23.765902 -1.367886 -1.527417 30.327805 1.310150 0.523372 -25.414594 0.000000 0.000000 0.000000 -29.394755 3.588014 -3.710007 -49.808036 -3.595951 -7.208769 -13.206132 -24.833720 4.356245 0.000000 0.000000 0.000000 19.445923 1.806448 -0.257182 57.085231 1.538082 -7.673260 10.033914 27.053808 3.534665 0.000000 0.000000 0.000000 
-0.000433 0.954733 0.002522 -1.541214 0.629322 -1.614664 5.084601 0.319298 8.183402 -3.979622 0.426509 -4.727653 2.824594 8.512479 8.700073 0.000000 0.000000 0.000000 -1.293515 -0.354975 4.198510 2.547194 -0.277753 -0.090656 -1.773892 -7.593362 9.343475 0.000000 0.000000 0.000000 -0.840789 -0.152141 4.561975 3.174471 -0.162672 -23.966756 -1.301499 -1.790756 30.677226 0.403518 0.978936 -24.665140 0.000000 0.000000 0.000000 -29.520235 3.449357 -3.505879 -49.299934 -3.616597 -7.208295 -12.669778 -23.677512 4.022449 0.000000 0.000000 0.000000 19.187951 2.796242 0.235436 57.456915 1.757181 -7.629284 8.560623 26.038391 3.032918 0.000000 0.000000 0.000000 
-0.000693 0.954871 0.003805 -1.524072 0.448439 -1.912257 5.027294 0.363440 8.869787 -3.907130 0.424067 -4.558575 2.885856 8.498015 8.265132 0.000000 0.000000 0.000000 -1.328151 -0.373217 4.429021 2.764594 -0.293362 0.380717 -1.726585 -7.561372 9.495489 0.000000 0.000000 0.000000 -0.968012 -0.148975 4.614463 3.749578 -0.277009 -24.522102 -1.518031 -1.634102 31.406340 0.633362 0.819350 -24.439315 0.000000 0.000000 0.000000 -30.912194 3.948332 -3.990977 -48.288486 -3.271509 -7.286461 -13.069044 -22.968746 3.977755 0.000000 0.000000 0.000000 19.252174 3.312958 0.555397 57.102996 2.231554 -7.462696 8.494425 25.531358 2.958923 0.000000 0.000000 0.000000 
-0.000930 0.955104 0.004904 -1.416084 0.338274 -2.198218 4.802489 0.414646 9.391312 -3.730398 0.413359 -4.671209 2.888397 8.597867 8.667769 0.000000 0.000000 0.000000 -1.499945 -0.396252 4.804173 2.607315 -0.278978 0.159047 -1.856201 -7.828881 9.481205 0.000000 0.000000 0.000000 -0.905544 -0.163131 4.948753 3.910274 -0.357312 -23.874888 -1.579899 -1.209114 30.560644 0.544904 0.891814 -23.422699 0.000000 0.000000 0.000000 -30.843910 3.724335 -4.018409 -47.857281 -2.908006 -7.233726 -13.815376 -22.638892 4.031967 0.000000 0.000000 0.000000 19.508712 3.204966 0.549159 56.601250 2.210558 -7.334925 8.780397 25.150879 2.965849 0.000000 0.000000 0.000000 
-0.001033 0.955137 0.005733 -1.345828 0.346306 -2.553230 4.819455 0.437149 9.803878 -3.591108 0.404353 -4.650312 2.716792 8.250850 8.448622 0.000000 0.000000 0.000000 -1.667634 -0.430788 5.303261 2.697574 -0.289136 0.167402 -1.734142 -7.524963 9.256633 0.000000 0.000000 0.000000 -1.040611 -0.161176 5.045934 3.977544 -0.370031 -23.965089 -1.568718 -1.187250 31.011207 0.320958 1.013257 -23.106382 0.000000 0.000000 0.000000 -30.668974 3.530069 -3.842337 -47.670403 -2.673443 -7.343783 -14.316209 -23.052551 4.218651 0.000000 0.000000 0.000000 19.350556 3.774823 0.890413 56.382778 2.260235 -7.341873 8.885465 25.379858 3.019231 0.000000 0.000000 0.000000 
-0.001146 0.955163 0.005926 -1.267701 0.629558 -2.540836 4.773784 0.433213 9.793850 -3.509496 0.396505 -4.612597 2.608943 8.172741 8.787260 0.000000 0.000000 0.000000 -1.603780 -0.443868 5.375235 2.640596 -0.283869 0.208688 -1.744699 -7.444448 8.987763 0.000000 0.000000 0.000000 -1.004931 -0.162798 5.043300 4.002478 -0.393661 -23.587117 -1.688860 -1.503441 30.781531 0.138670 1.108633 -23.208991 0.000000 0.000000 0.000000 -30.443620 3.383483 -3.669632 -47.678177 -2.428669 -7.428925 -15.460758 -23.774250 4.615587 0.000000 0.000000 0.000000 19.637693 4.003060 0.961534 56.179562 2.468623 -7.195568 9.191181 25.617847 3.107145 0.000000 0.000000 0.000000 
-0.001366 0.954997 0.005600 -1.276308 0.661217 -2.522423 4.707440 0.422669 9.467300 -3.482539 0.393400 -4.273398 2.911609 8.518649 8.103695 0.000000 0.000000 0.000000 -1.719233 -0.403779 4.993001 2.786754 -0.296072 0.491837 -1.870389 -7.538098 8.418691 0.000000 0.000000 0.000000 -0.854559 -0.170416 5.072939 3.812601 -0.356348 -23.395062 -1.671954 -1.517063 31.156915 -0.173444 1.291274 -22.974614 0.000000 0.000000 0.000000 -30.274137 2.699627 -3.162331 -47.252371 -2.780961 -7.287916 -17.476673 -25.396230 5.430815 0.000000 0.000000 0.000000 20.040393 4.182170 1.062574 55.789803 2.736134 -7.078735 10.214833 26.791256 3.513196 0.000000 0.000000 0.000000 
-0.001916 0.954749 0.004738 -1.156885 0.730472 -2.521207 4.663378 0.411144 9.172658 -3.558772 0.398023 -4.227126 3.104423 8.780158 7.805841 0.000000 0.000000 0.000000 -1.793478 -0.387382 4.848744 2.790397 -0.295908 0.557876 -1.943982 -7.690276 8.443953 0.000000 0.000000 0.000000 -1.040227 -0.175094 5.470390 4.124294 -0.437318 -23.360618 -1.708092 -1.577104 31.204638 -0.593121 1.548526 -22.852517 0.000000 0.000000 0.000000 -30.029542 2.338542 -2.867243 -47.134105 -3.033458 -7.199518 -18.979920 -27.377809 6.286445 0.000000 0.000000 0.000000 20.114830 4.517897 1.241690 55.590144 2.835974 -7.019366 10.978927 28.410144 3.950784 0.000000 0.000000 0.000000 
-0.002683 0.954315 0.003822 -1.133288 0.902979 -2.326186 4.773061 0.371231 8.671190 -3.733139 0.408258 -3.660310 3.396135 9.106475 7.040830 0.000000 0.000000 0.000000 -1.550483 -0.370713 4.489694 2.615365 -0.272416 0.832656 -2.086910 -7.814803 7.878545 0.000000 0.000000 0.000000 -1.034023 -0.181233 5.654518 4.128338 -0.427899 -23.484183 -1.573561 -1.689510 31.524582 -0.893137 1.744292 -23.060681 0.000000 0.000000 0.000000 -29.816186 2.053037 -2.641555 -46.309207 -3.746166 -6.868633 -21.834485 -29.434105 7.593260 0.000000 0.000000 0.000000 20.720098 4.457088 1.199807 54.785152 2.893977 -6.945031 13.389405 30.683574 4.974437 0.000000 0.000000 0.000000 
-0.003385 0.953669 0.003439 -1.087225 1.121258 -2.313511 4.829701 0.341929 8.254014 -3.696043 0.403312 -3.193493 3.109122 8.460247 6.465440 0.000000 0.000000 0.000000 -1.573215 -0.350402 4.254200 2.751904 -0.283799 1.240572 -2.336259 -8.171470 7.331947 0.000000 0.000000 0.000000 -1.330276 -0.184033 6.225855 4.228234 -0.443513 -23.545403 -1.442620 -1.797910 31.485194 -1.020571 1.824518 -22.987441 0.000000 0.000000 0.000000 -29.675517 1.699614 -2.394126 -45.373494 -4.269728 -6.578131 -24.723593 -32.537660 9.367973 0.000000 0.000000 0.000000 20.294141 4.329093 1.156580 54.650422 2.210709 -7.243280 17.198779 33.930876 6.766282 0.000000 0.000000 0.000000 
-0.003705 0.952851 0.004113 -0.917415 1.397817 -2.346800 4.654433 0.344550 8.118093 -3.589005 0.391485 -2.549184 3.356284 8.715286 5.714280 0.000000 0.000000 0.000000 -1.693821 -0.270033 3.384944 2.642487 -0.245139 3.017658 -2.497702 -8.182966 6.148645 0.000000 0.000000 0.000000 -1.502682 -0.196678 6.954006 4.365090 -0.476494 -23.529625 -1.170981 -1.710276 31.782244 -0.906033 1.800551 -23.168981 0.000000 0.000000 0.000000 -29.361029 1.534667 -2.355166 -44.535136 -5.086520 -6.192069 -28.338051 -35.373947 11.478357 0.000000 0.000000 0.000000 20.839443 4.047301 1.061324 53.154534 1.771814 -7.303951 22.743775 38.692314 9.896404 0.000000 0.000000 0.000000 
-0.003192 0.951718 0.005946 -0.970675 1.695453 -2.491361 4.484679 0.344293 7.944034 -3.317149 0.362196 -1.635430 3.471464 8.682835 4.780698 0.000000 0.000000 0.000000 -1.693050 -0.166376 2.169615 2.320319 -0.156271 5.750980 -2.599310 -7.960430 4.545197 0.000000 0.000000 0.000000 -1.429700 -0.222623 7.605351 4.856158 -0.633412 -22.939900 -1.608227 -1.533753 31.551582 -1.107218 1.977714 -22.785740 0.000000 0.000000 0.000000 -28.695682 1.158432 -2.192749 -43.389809 -5.298554 -5.926812 -33.475766 -39.022482 14.715140 0.000000 0.000000 0.000000 20.519002 3.893388 1.081238 52.340767 1.499888 -7.320601 30.241939 43.064592 14.380851 0.000000 0.000000 0.000000 
-0.002004 0.950209 0.008648 -0.721365 1.364118 -2.348884 4.034175 0.372428 7.649632 -2.954472 0.327406 -1.166003 3.870490 9.249594 4.157942 0.000000 0.000000 0.000000 -2.030387 0.017428 0.139265 2.246106 -0.067302 9.931490 -2.519416 -7.256350 2.693541 0.000000 0.000000 0.000000 -1.295312 -0.249989 8.279301 4.777611 -0.652912 -22.412928 -1.555213 -1.842271 31.515103 -1.455996 2.131082 -23.383531 0.000000 0.000000 0.000000 -28.708752 0.964922 -1.851912 -42.360807 -6.521565 -5.474526 -39.742736 -42.086710 18.820216 0.000000 0.000000 0.000000 19.917494 4.167844 1.092622 51.180853 1.432834 -7.155489 39.929153 47.976278 20.898663 0.000000 0.000000 0.000000 
-0.000797 0.948578 0.012654 -0.487507 1.169498 -2.183182 3.550754 0.416684 7.712825 -2.807165 0.312234 -0.960546 3.960776 9.182693 3.259297 0.000000 0.000000 0.000000 -2.613262 0.226604 -2.410413 2.375778 -0.013938 14.629883 -2.856215 -7.582141 1.128243 0.000000 0.000000 0.000000 -1.148809 -0.285053 9.101068 5.129765 -0.787941 -21.845066 -2.060230 -2.247151 31.055576 -2.188299 2.515116 -23.852661 0.000000 0.000000 0.000000 -28.201015 0.614731 -1.400338 -41.511496 -6.812871 -5.294514 -47.481164 -46.399459 24.937159 0.000000 0.000000 0.000000 19.809355 4.181158 0.928247 50.154566 1.299196 -6.983670 50.671026 52.567251 29.148398 0.000000 0.000000 0.000000 
